<svg width="364" height="60" viewBox="0 0 364 60" fill="none" xmlns="http://www.w3.org/2000/svg">
<path d="M37.822 24.8641L37.2897 24.7515L30.7463 37.9304C30.9802 37.8929 31.2087 37.8553 31.4292 37.8205L37.8247 24.8641H37.822Z" fill="white"/>
<path d="M8.32839 41.1112L8.33646 41.0978L2.31464 38.2255L0.551109 30.0751L4.47873 23.6358L10.9818 25.4622L11.0006 25.4461L11.4952 25.5105L13.9281 32.5559L13.662 33.0145L20.5011 31.3249L19.1112 34.0336L19.1005 34.0363L19.1112 34.0443L20.5118 31.349L17.7025 23.8101L11.799 21.9301L4.0029 23.3515L0 30.0402L1.90064 38.7028L7.82299 41.6181L10.2156 40.9798L9.88223 40.6258L8.32839 41.1112Z" fill="white"/>
<path d="M13.6619 33.0145L13.9281 32.5559L11.4952 25.5105L11.0005 25.4461L10.9817 25.4622L11.0865 25.4917L13.6619 33.0145Z" fill="white"/>
<path d="M13.6619 33.0145L13.9281 32.5559L11.4952 25.5105L11.0005 25.4461L10.9817 25.4622L11.0865 25.4917L13.6619 33.0145Z" fill="white"/>
<path d="M20.8076 42.8303V42.766C20.8049 42.766 20.8076 42.7928 20.8076 42.8303Z" fill="white"/>
<path d="M23.2163 40.8779L25.2514 39.8024C25.2352 39.7863 25.2245 39.7756 25.2191 39.7702L19.1112 34.0443L18.2375 35.7232L23.2163 40.8779Z" fill="white"/>
<path d="M12.971 35.3344L12.436 35.447L12.6592 35.6723L12.971 35.3344Z" fill="white"/>
<path d="M12.971 35.3344L12.436 35.447L12.6592 35.6723L12.971 35.3344Z" fill="white"/>
<path d="M17.0305 34.4734L18.2376 35.7232L19.1113 34.0443L19.1005 34.0363L17.0305 34.4734Z" fill="white"/>
<path d="M17.0305 34.4734L18.2376 35.7232L19.1113 34.0443L19.1005 34.0363L17.0305 34.4734Z" fill="white"/>
<path d="M15.3529 37.2761L15.0088 38.0404L20.2134 43.2809L20.8075 42.8303C20.8075 42.7928 20.8048 42.7686 20.8075 42.766L20.8209 42.1411L23.2135 40.8752L18.2348 35.7206L16.9928 38.1101L15.3529 37.2734V37.2761Z" fill="white"/>
<path d="M15.3529 37.2761L15.0088 38.0404L20.2134 43.2809L20.8075 42.8303C20.8075 42.7928 20.8048 42.7686 20.8075 42.766L20.8209 42.1411L23.2135 40.8752L18.2348 35.7206L16.9928 38.1101L15.3529 37.2734V37.2761Z" fill="white"/>
<path d="M12.6592 35.6723L15.0115 38.0404L15.3529 37.2761L16.9954 38.1155L18.2374 35.7232L17.0304 34.4734L12.971 35.3343L12.6592 35.6723Z" fill="white"/>
<path d="M12.6592 35.6723L15.0115 38.0404L15.3529 37.2761L16.9954 38.1155L18.2374 35.7232L17.0304 34.4734L12.971 35.3343L12.6592 35.6723Z" fill="white"/>
<path d="M12.6592 35.6723L15.0115 38.0404L15.3529 37.2761L16.9954 38.1155L18.2374 35.7232L17.0304 34.4734L12.971 35.3343L12.6592 35.6723Z" fill="white"/>
<path d="M50.449 27.5058L48.5645 27.0767L48.5295 27.1357H48.5268V27.1384L48.5161 27.133L45.0992 26.374L37.8704 39.9231L41.3302 42.2376L42.2657 42.8491L50.4517 27.5031L50.449 27.5058Z" fill="white"/>
<path d="M19.9123 50.852L19.915 50.5489L10.8554 40.8082L10.2156 40.9798L19.9742 51.3213L19.9768 50.8922L19.9123 50.852Z" fill="white"/>
<path d="M9.49788 39.3492L9.18604 39.8266L9.89306 40.6231L9.88231 40.6258L10.2157 40.9798L10.8555 40.8081L9.49788 39.3492Z" fill="white"/>
<path d="M9.49788 39.3492L9.18604 39.8266L9.89306 40.6231L9.88231 40.6258L10.2157 40.9798L10.8555 40.8081L9.49788 39.3492Z" fill="white"/>
<path d="M8.34719 41.1032L8.33643 41.0978L8.32837 41.1112L9.88221 40.6258L9.89297 40.6231L9.18594 39.8266L8.34719 41.1032Z" fill="white"/>
<path d="M34.2006 23.4856L30.3725 10.379L37.9427 0.713392L49.7041 2.64974L49.7149 2.6712L50.317 2.60683L55.4329 14.587L55.0243 15.1904V15.1931L55.0189 15.2038L55.1049 15.582L55.4517 15.2333L62.85 14.1364L60.8176 17.6739L62.8526 14.1337L57.2018 1.84248L45.2818 0L37.5933 0.354014L37.4965 0.356696L29.7407 10.1591L33.6764 23.9844L37.2895 24.7515L37.553 24.2205L34.2006 23.4856Z" fill="white"/>
<path d="M38.0826 24.3358L37.553 24.2205L37.2896 24.7515L37.8218 24.8641L38.0826 24.3358Z" fill="white"/>
<path d="M38.0826 24.3358L37.553 24.2205L37.2896 24.7515L37.8218 24.8641L38.0826 24.3358Z" fill="white"/>
<path d="M50.6396 27.1518L50.4514 27.5031L56.0539 25.9664L60.8175 17.6739L56.0512 25.9664L50.6396 27.1518Z" fill="white"/>
<path d="M50.3361 27.2162L48.6639 26.9104L48.5645 27.0767L50.449 27.5058L50.4517 27.5031L50.6398 27.1518L50.3361 27.2162Z" fill="white"/>
<path d="M50.3361 27.2162L48.6639 26.9104L48.5645 27.0767L50.449 27.5058L50.4517 27.5031L50.6398 27.1518L50.3361 27.2162Z" fill="white"/>
<path d="M55.4517 15.2333L55.1049 15.582L55.1856 15.9413L51.5214 22.1017L52.9838 22.7561L50.6396 27.1518L56.0512 25.9664L60.8176 17.6739L62.85 14.1364L55.4517 15.2333Z" fill="white"/>
<path d="M55.4517 15.2333L55.1049 15.582L55.1856 15.9413L51.5214 22.1017L52.9838 22.7561L50.6396 27.1518L56.0512 25.9664L60.8176 17.6739L62.85 14.1364L55.4517 15.2333Z" fill="white"/>
<path d="M49.0536 26.2641L48.6638 26.9104L50.336 27.2162L50.6397 27.1518L52.9839 22.7561L51.5215 22.1017L49.0456 26.2614L49.0536 26.2641Z" fill="white"/>
<path d="M49.0536 26.2641L48.6638 26.9104L50.336 27.2162L50.6397 27.1518L52.9839 22.7561L51.5215 22.1017L49.0456 26.2614L49.0536 26.2641Z" fill="white"/>
<path d="M49.0536 26.2641L48.6638 26.9104L50.336 27.2162L50.6397 27.1518L52.9839 22.7561L51.5215 22.1017L49.0456 26.2614L49.0536 26.2641Z" fill="white"/>
<path d="M42.2817 42.8759L42.2495 42.8813L42.2414 42.8947L42.2871 42.8866L44.8329 44.528L40.9322 45.354L38.3219 50.2458L37.8648 49.6907L37.0583 56.4304L36.5879 56.3767L27.6681 59.1766L20.4903 52.2734L20.5037 51.8845L19.9741 51.3213L19.9688 52.4906L27.5928 60L36.9427 57.1223L43.5426 54.1427L44.8867 44.5628L42.2656 42.8491L42.2602 42.8598L42.2817 42.8759Z" fill="white"/>
<path d="M37.76 46.0406L37.7654 46.0379L38.2439 46.5153L37.8649 49.6907L38.3219 50.2458L40.9322 45.354L37.7439 46.0272L37.76 46.0406Z" fill="white"/>
<path d="M37.76 46.0406L37.7654 46.0379L38.2439 46.5153L37.8649 49.6907L38.3219 50.2458L40.9322 45.354L37.7439 46.0272L37.76 46.0406Z" fill="white"/>
<path d="M42.2415 42.8947L42.2495 42.8813L41.7415 42.9886L42.2415 42.8947Z" fill="white"/>
<path d="M42.2415 42.8947L42.2495 42.8813L41.7415 42.9886L42.2415 42.8947Z" fill="white"/>
<path d="M42.2602 42.8598L42.2656 42.8491L41.3301 42.2376L42.2602 42.8598Z" fill="white"/>
<path d="M42.2602 42.8598L42.2656 42.8491L41.3301 42.2376L42.2602 42.8598Z" fill="white"/>
<path d="M36.6498 45.1609L35.5826 44.2839L35.5476 44.2893L36.6498 45.1609Z" fill="white"/>
<path d="M36.6498 45.1609L35.5826 44.2839L35.5476 44.2893L36.6498 45.1609Z" fill="white"/>
<path d="M20.5279 51.206L20.5118 51.1899L20.4473 51.1926L19.9768 50.8922L19.9741 51.3213L20.5037 51.8845L20.5279 51.206Z" fill="white"/>
<path d="M20.5279 51.206L20.5118 51.1899L20.4473 51.1926L19.9768 50.8922L19.9741 51.3213L20.5037 51.8845L20.5279 51.206Z" fill="white"/>
<path d="M13.6592 33.0145L11.9683 35.4792L12.0166 35.5248L12.4199 35.4309L12.436 35.447L12.971 35.3343L17.0303 34.4734L19.1004 34.0363L19.1111 34.0336L20.501 31.3249L13.6619 33.0145H13.6592Z" fill="white"/>
<path d="M12.0249 35.5355L12.0282 35.5388L12.0249 35.5355Z" fill="white"/>
<path d="M12.0249 35.5355L12.0282 35.5388L12.0249 35.5355Z" fill="white"/>
<path d="M12.4362 35.447L12.0249 35.5355L12.0276 35.5382L12.4201 35.9297L12.6593 35.6723L12.4362 35.447Z" fill="white"/>
<path d="M12.4362 35.447L12.0249 35.5355L12.0276 35.5382L12.4201 35.9297L12.6593 35.6723L12.4362 35.447Z" fill="white"/>
<path d="M12.4362 35.447L12.0249 35.5355L12.0276 35.5382L12.4201 35.9297L12.6593 35.6723L12.4362 35.447Z" fill="white"/>
<path d="M15.0116 38.0404L14.8638 38.3703L19.9662 43.4713L20.2135 43.2809L15.0116 38.0404Z" fill="white"/>
<path d="M15.0116 38.0404L14.8638 38.3703L19.9662 43.4713L20.2135 43.2809L15.0116 38.0404Z" fill="white"/>
<path d="M15.0116 38.0404L14.8638 38.3703L19.9662 43.4713L20.2135 43.2809L15.0116 38.0404Z" fill="white"/>
<path d="M12.6592 35.6723L12.4199 35.9297L14.8636 38.3703L15.0115 38.0404L12.6592 35.6723Z" fill="white"/>
<path d="M12.6592 35.6723L12.4199 35.9297L14.8636 38.3703L15.0115 38.0404L12.6592 35.6723Z" fill="white"/>
<path d="M12.6592 35.6723L12.4199 35.9297L14.8636 38.3703L15.0115 38.0404L12.6592 35.6723Z" fill="white"/>
<path d="M12.6592 35.6723L12.4199 35.9297L14.8636 38.3703L15.0115 38.0404L12.6592 35.6723Z" fill="white"/>
<path d="M12.4362 35.447L12.4201 35.4309L12.0168 35.5248L12.0249 35.5355L12.4362 35.447Z" fill="white"/>
<path d="M12.4362 35.447L12.4201 35.4309L12.0168 35.5248L12.0249 35.5355L12.4362 35.447Z" fill="white"/>
<path d="M30.4182 38.5875L30.7462 37.9305C29.5687 38.1182 28.3133 38.3166 28.0149 38.3515L28.0283 38.3622L30.4209 38.5902L30.4182 38.5875Z" fill="white"/>
<path d="M31.0204 38.6438L31.4263 37.8205C31.2086 37.8554 30.9774 37.8929 30.7435 37.9305L30.4155 38.5875L31.0177 38.6438H31.0204Z" fill="white"/>
<path d="M31.0204 38.6438L31.4263 37.8205C31.2086 37.8554 30.9774 37.8929 30.7435 37.9305L30.4155 38.5875L31.0177 38.6438H31.0204Z" fill="white"/>
<path d="M28.523 38.7377L29.8295 39.7702L30.4182 38.5875L28.0256 38.3596L28.5203 38.7404L28.523 38.7377Z" fill="white"/>
<path d="M28.523 38.7377L29.8295 39.7702L30.4182 38.5875L28.0256 38.3596L28.5203 38.7404L28.523 38.7377Z" fill="white"/>
<path d="M30.2866 40.1323L31.0205 38.6438L30.4183 38.5875L29.8296 39.7702L30.2866 40.1323Z" fill="white"/>
<path d="M30.2866 40.1323L31.0205 38.6438L30.4183 38.5875L29.8296 39.7702L30.2866 40.1323Z" fill="white"/>
<path d="M30.2866 40.1323L31.0205 38.6438L30.4183 38.5875L29.8296 39.7702L30.2866 40.1323Z" fill="white"/>
<path d="M44.8329 44.528L42.287 42.8867L42.2413 42.8947L40.9321 45.354L44.8329 44.528Z" fill="white"/>
<path d="M44.8329 44.528L42.287 42.8867L42.2413 42.8947L40.9321 45.354L44.8329 44.528Z" fill="white"/>
<path d="M35.5825 44.2839L36.6498 45.1609L37.7439 46.0272L40.9323 45.354L42.2415 42.8947L41.7414 42.9885L35.5825 44.2839Z" fill="white"/>
<path d="M35.5825 44.2839L36.6498 45.1609L37.7439 46.0272L40.9323 45.354L42.2415 42.8947L41.7414 42.9885L35.5825 44.2839Z" fill="white"/>
<path d="M35.5825 44.2839L36.6498 45.1609L37.7439 46.0272L40.9323 45.354L42.2415 42.8947L41.7414 42.9885L35.5825 44.2839Z" fill="white"/>
<path d="M41.33 42.2376L37.8701 39.9231L37.8486 39.9634L41.33 42.2376Z" fill="white"/>
<path d="M41.33 42.2376L37.8701 39.9231L37.8486 39.9634L41.33 42.2376Z" fill="white"/>
<path d="M42.2818 42.8759L42.2603 42.8598L42.2495 42.8813L42.2818 42.8759Z" fill="white"/>
<path d="M42.2818 42.8759L42.2603 42.8598L42.2495 42.8813L42.2818 42.8759Z" fill="white"/>
<path d="M35.6201 44.1418L41.7414 42.9886L42.2495 42.8813L42.2602 42.8598L41.3301 42.2376L37.8487 39.9633L35.6201 44.1418Z" fill="white"/>
<path d="M35.6201 44.1418L41.7414 42.9886L42.2495 42.8813L42.2602 42.8598L41.3301 42.2376L37.8487 39.9633L35.6201 44.1418Z" fill="white"/>
<path d="M35.6201 44.1418L41.7414 42.9886L42.2495 42.8813L42.2602 42.8598L41.3301 42.2376L37.8487 39.9633L35.6201 44.1418Z" fill="white"/>
<path d="M35.5826 44.2839L35.5557 44.2598L35.5422 44.2866L35.5476 44.2893L35.5826 44.2839Z" fill="white"/>
<path d="M35.5826 44.2839L35.5557 44.2598L35.5422 44.2866L35.5476 44.2893L35.5826 44.2839Z" fill="white"/>
<path d="M35.5826 44.2839L35.5557 44.2598L35.5422 44.2866L35.5476 44.2893L35.5826 44.2839Z" fill="white"/>
<path d="M41.7415 42.9886L35.6202 44.1418L35.5557 44.2598L35.5825 44.2839L41.7415 42.9886Z" fill="white"/>
<path d="M41.7415 42.9886L35.6202 44.1418L35.5557 44.2598L35.5825 44.2839L41.7415 42.9886Z" fill="white"/>
<path d="M41.7415 42.9886L35.6202 44.1418L35.5557 44.2598L35.5825 44.2839L41.7415 42.9886Z" fill="white"/>
<path d="M41.7415 42.9886L35.6202 44.1418L35.5557 44.2598L35.5825 44.2839L41.7415 42.9886Z" fill="white"/>
<path d="M27.996 38.3569H28.0067L28.0014 38.3515C28.004 38.3515 28.0094 38.3515 28.0121 38.3515H28.0067L25.2512 39.8051C25.2512 39.8051 25.2539 39.8078 25.2566 39.8105L27.996 38.3595V38.3569Z" fill="white"/>
<path d="M20.8103 42.766L20.8076 42.8303H20.8103V42.8357V42.8384L20.8426 42.8196V42.7499L20.8103 42.766Z" fill="white"/>
<path d="M20.8103 42.766L20.8076 42.8303H20.8103V42.8357V42.8384L20.8426 42.8196V42.7499L20.8103 42.766Z" fill="white"/>
<path d="M23.2244 40.8832L25.2567 39.8078C25.2567 39.8078 25.2541 39.8051 25.2514 39.8024L23.2163 40.8779L23.2217 40.8832H23.2244Z" fill="white"/>
<path d="M23.2244 40.8832L25.2567 39.8078C25.2567 39.8078 25.2541 39.8051 25.2514 39.8024L23.2163 40.8779L23.2217 40.8832H23.2244Z" fill="white"/>
<path d="M20.8103 42.7659L20.8426 42.7499L20.8453 42.1411L23.2244 40.8832L23.2163 40.8779L20.8237 42.1411L20.8103 42.7659Z" fill="white"/>
<path d="M20.8103 42.7659L20.8426 42.7499L20.8453 42.1411L23.2244 40.8832L23.2163 40.8779L20.8237 42.1411L20.8103 42.7659Z" fill="white"/>
<path d="M20.8103 42.7659L20.8426 42.7499L20.8453 42.1411L23.2244 40.8832L23.2163 40.8779L20.8237 42.1411L20.8103 42.7659Z" fill="white"/>
<path d="M28.3347 38.8396C28.1465 38.5661 28.0202 38.3783 28.0067 38.3596H27.996L25.2566 39.8078C25.3587 39.9124 25.6114 40.2101 25.6249 40.2798L28.3347 38.8396Z" fill="white"/>
<path d="M28.3347 38.8396C28.1465 38.5661 28.0202 38.3783 28.0067 38.3596H27.996L25.2566 39.8078C25.3587 39.9124 25.6114 40.2101 25.6249 40.2798L28.3347 38.8396Z" fill="white"/>
<path d="M23.6519 41.3284L24.6707 40.7867L23.6411 41.315L23.6519 41.3284Z" fill="white"/>
<path d="M23.6519 41.3284L24.6707 40.7867L23.6411 41.315L23.6519 41.3284Z" fill="white"/>
<path d="M20.8425 42.7499V42.8196L23.6518 41.3284L23.6411 41.315L20.8425 42.7499Z" fill="white"/>
<path d="M20.8425 42.7499V42.8196L23.6518 41.3284L23.6411 41.315L20.8425 42.7499Z" fill="white"/>
<path d="M20.8425 42.7499V42.8196L23.6518 41.3284L23.6411 41.315L20.8425 42.7499Z" fill="white"/>
<path d="M24.6707 40.7867L25.625 40.2798C25.6116 40.2128 25.3562 39.9151 25.2567 39.8078L23.2244 40.8833L23.6411 41.315L24.6707 40.7867Z" fill="white"/>
<path d="M24.6707 40.7867L25.625 40.2798C25.6116 40.2128 25.3562 39.9151 25.2567 39.8078L23.2244 40.8833L23.6411 41.315L24.6707 40.7867Z" fill="white"/>
<path d="M24.6707 40.7867L25.625 40.2798C25.6116 40.2128 25.3562 39.9151 25.2567 39.8078L23.2244 40.8833L23.6411 41.315L24.6707 40.7867Z" fill="white"/>
<path d="M20.8425 42.7499L23.6411 41.315L23.2244 40.8832L20.8452 42.1411L20.8425 42.7499Z" fill="white"/>
<path d="M20.8425 42.7499L23.6411 41.315L23.2244 40.8832L20.8452 42.1411L20.8425 42.7499Z" fill="white"/>
<path d="M20.8425 42.7499L23.6411 41.315L23.2244 40.8832L20.8452 42.1411L20.8425 42.7499Z" fill="white"/>
<path d="M20.8425 42.7499L23.6411 41.315L23.2244 40.8832L20.8452 42.1411L20.8425 42.7499Z" fill="white"/>
<path d="M28.0068 38.3566H28.0276L28.0145 38.3488C28.0119 38.3488 28.0068 38.3488 28.0042 38.3488C28.0042 38.3488 28.0068 38.354 28.0094 38.354L28.0068 38.3566Z" fill="white"/>
<path d="M28.0068 38.3566H28.0276L28.0145 38.3488C28.0119 38.3488 28.0068 38.3488 28.0042 38.3488C28.0042 38.3488 28.0068 38.354 28.0094 38.354L28.0068 38.3566Z" fill="white"/>
<path d="M28.5203 38.7404L28.0257 38.3622H28.0042C28.0176 38.3783 28.1439 38.5661 28.3321 38.8396L28.5203 38.7404Z" fill="white"/>
<path d="M28.5203 38.7404L28.0257 38.3622H28.0042C28.0176 38.3783 28.1439 38.5661 28.3321 38.8396L28.5203 38.7404Z" fill="white"/>
<path d="M28.5203 38.7404L28.0257 38.3622H28.0042C28.0176 38.3783 28.1439 38.5661 28.3321 38.8396L28.5203 38.7404Z" fill="white"/>
<path d="M36.5879 56.3767L37.0583 56.4304L37.8648 49.6907L37.4186 49.1489L36.5879 56.3767Z" fill="white"/>
<path d="M36.5879 56.3767L37.0583 56.4304L37.8648 49.6907L37.4186 49.1489L36.5879 56.3767Z" fill="white"/>
<path d="M37.7655 46.0379L37.7601 46.0406L37.7762 46.0513L37.4187 49.1489L37.865 49.6907L38.244 46.5153L37.7655 46.0379Z" fill="white"/>
<path d="M37.7655 46.0379L37.7601 46.0406L37.7762 46.0513L37.4187 49.1489L37.865 49.6907L38.244 46.5153L37.7655 46.0379Z" fill="white"/>
<path d="M37.7655 46.0379L37.7601 46.0406L37.7762 46.0513L37.4187 49.1489L37.865 49.6907L38.244 46.5153L37.7655 46.0379Z" fill="white"/>
<path d="M20.2134 43.2809L20.4957 43.5652L20.5629 44.0667L20.7618 44.2652L20.8102 42.8598C20.8102 42.8598 20.8102 42.841 20.8102 42.8303L20.2161 43.2809H20.2134Z" fill="white"/>
<path d="M20.2134 43.2809L20.4957 43.5652L20.5629 44.0667L20.7618 44.2652L20.8102 42.8598C20.8102 42.8598 20.8102 42.841 20.8102 42.8303L20.2161 43.2809H20.2134Z" fill="white"/>
<path d="M20.2134 43.2809L20.4957 43.5652L20.5629 44.0667L20.7618 44.2652L20.8102 42.8598C20.8102 42.8598 20.8102 42.841 20.8102 42.8303L20.2161 43.2809H20.2134Z" fill="white"/>
<path d="M19.915 50.5489L19.9124 50.8519L19.9769 50.8922L19.9796 50.6159L19.915 50.5489Z" fill="white"/>
<path d="M19.915 50.5489L19.9124 50.8519L19.9769 50.8922L19.9796 50.6159L19.915 50.5489Z" fill="white"/>
<path d="M19.9768 50.8922L20.4473 51.1926L20.5118 51.1899L19.9795 50.6159L19.9768 50.8922Z" fill="white"/>
<path d="M19.9768 50.8922L20.4473 51.1926L20.5118 51.1899L19.9795 50.6159L19.9768 50.8922Z" fill="white"/>
<path d="M19.9768 50.8922L20.4473 51.1926L20.5118 51.1899L19.9795 50.6159L19.9768 50.8922Z" fill="white"/>
<path d="M20.2134 43.2809L19.9661 43.4713L20.5629 44.0694L20.4957 43.5652L20.2134 43.2809Z" fill="white"/>
<path d="M20.2134 43.2809L19.9661 43.4713L20.5629 44.0694L20.4957 43.5652L20.2134 43.2809Z" fill="white"/>
<path d="M20.2134 43.2809L19.9661 43.4713L20.5629 44.0694L20.4957 43.5652L20.2134 43.2809Z" fill="white"/>
<path d="M20.2134 43.2809L19.9661 43.4713L20.5629 44.0694L20.4957 43.5652L20.2134 43.2809Z" fill="white"/>
<path d="M20.8104 42.8303H20.8076L20.8104 42.836V42.8303Z" fill="white"/>
<path d="M20.8104 42.8303H20.8076L20.8104 42.836V42.8303Z" fill="white"/>
<path d="M20.8104 42.8303H20.8076L20.8104 42.836V42.8303Z" fill="white"/>
<path d="M48.5266 27.1384V27.1357L48.5159 27.133L48.5266 27.1384Z" fill="white"/>
<path d="M48.5266 27.1384V27.1357L48.5159 27.133L48.5266 27.1384Z" fill="white"/>
<path d="M55.1051 15.582L55.019 15.2038L54.3013 16.3919L55.1051 15.582Z" fill="white"/>
<path d="M55.1051 15.582L55.019 15.2038L54.3013 16.3919L55.1051 15.582Z" fill="white"/>
<path d="M51.0054 21.8711L51.5215 22.1017L55.1857 15.9413L55.105 15.582L54.3012 16.3919L51.0054 21.8711Z" fill="white"/>
<path d="M51.0054 21.8711L51.5215 22.1017L55.1857 15.9413L55.105 15.582L54.3012 16.3919L51.0054 21.8711Z" fill="white"/>
<path d="M51.0054 21.8711L51.5215 22.1017L55.1857 15.9413L55.105 15.582L54.3012 16.3919L51.0054 21.8711Z" fill="white"/>
<path d="M48.4487 26.1193L49.0455 26.2614L51.5215 22.1017L51.0053 21.8711L48.4487 26.1193Z" fill="white"/>
<path d="M48.4487 26.1193L49.0455 26.2614L51.5215 22.1017L51.0053 21.8711L48.4487 26.1193Z" fill="white"/>
<path d="M48.4487 26.1193L49.0455 26.2614L51.5215 22.1017L51.0053 21.8711L48.4487 26.1193Z" fill="white"/>
<path d="M48.4487 26.1193L49.0455 26.2614L51.5215 22.1017L51.0053 21.8711L48.4487 26.1193Z" fill="white"/>
<path d="M45.1367 26.3043L45.0991 26.374L48.516 27.133L48.3493 27.0284L45.1367 26.3043Z" fill="white"/>
<path d="M45.1367 26.3043L45.0991 26.374L48.516 27.133L48.3493 27.0284L45.1367 26.3043Z" fill="white"/>
<path d="M45.1555 26.2694L45.1367 26.3043L48.3493 27.0284L47.9406 26.779L45.1555 26.2694Z" fill="white"/>
<path d="M45.1555 26.2694L45.1367 26.3043L48.3493 27.0284L47.9406 26.779L45.1555 26.2694Z" fill="white"/>
<path d="M45.1555 26.2694L45.1367 26.3043L48.3493 27.0284L47.9406 26.779L45.1555 26.2694Z" fill="white"/>
<path d="M49.0456 26.2614L48.6611 26.9104H48.6638L49.0536 26.2641L49.0456 26.2614Z" fill="white"/>
<path d="M49.0456 26.2614L48.6611 26.9104H48.6638L49.0536 26.2641L49.0456 26.2614Z" fill="white"/>
<path d="M49.0456 26.2614L48.6611 26.9104H48.6638L49.0536 26.2641L49.0456 26.2614Z" fill="white"/>
<path d="M49.0456 26.2614L48.6611 26.9104H48.6638L49.0536 26.2641L49.0456 26.2614Z" fill="white"/>
<path d="M47.6153 26.5778L47.6987 26.4411L45.3383 25.9235L45.1555 26.2694L47.9406 26.779L47.6153 26.5778Z" fill="white"/>
<path d="M47.6153 26.5778L47.6987 26.4411L45.3383 25.9235L45.1555 26.2694L47.9406 26.779L47.6153 26.5778Z" fill="white"/>
<path d="M47.6153 26.5778L47.6987 26.4411L45.3383 25.9235L45.1555 26.2694L47.9406 26.779L47.6153 26.5778Z" fill="white"/>
<path d="M47.6153 26.5778L47.6987 26.4411L45.3383 25.9235L45.1555 26.2694L47.9406 26.779L47.6153 26.5778Z" fill="white"/>
<path d="M48.3494 27.0284L48.516 27.133L48.5268 27.1357L48.5617 27.0767L48.3494 27.0284Z" fill="white"/>
<path d="M48.3494 27.0284L48.516 27.133L48.5268 27.1357L48.5617 27.0767L48.3494 27.0284Z" fill="white"/>
<path d="M48.3494 27.0284L48.516 27.133L48.5268 27.1357L48.5617 27.0767L48.3494 27.0284Z" fill="white"/>
<path d="M48.3493 27.0284L48.5617 27.0767L48.6612 26.9104L47.9407 26.779L48.3493 27.0284Z" fill="white"/>
<path d="M48.3493 27.0284L48.5617 27.0767L48.6612 26.9104L47.9407 26.779L48.3493 27.0284Z" fill="white"/>
<path d="M48.3493 27.0284L48.5617 27.0767L48.6612 26.9104L47.9407 26.779L48.3493 27.0284Z" fill="white"/>
<path d="M48.3493 27.0284L48.5617 27.0767L48.6612 26.9104L47.9407 26.779L48.3493 27.0284Z" fill="white"/>
<path d="M48.4488 26.1193L48.1908 26.5484L47.6988 26.4411L47.6155 26.5779L47.9408 26.779L48.6612 26.9104L49.0457 26.2614L48.4488 26.1193Z" fill="white"/>
<path d="M48.4488 26.1193L48.1908 26.5484L47.6988 26.4411L47.6155 26.5779L47.9408 26.779L48.6612 26.9104L49.0457 26.2614L48.4488 26.1193Z" fill="white"/>
<path d="M48.4488 26.1193L48.1908 26.5484L47.6988 26.4411L47.6155 26.5779L47.9408 26.779L48.6612 26.9104L49.0457 26.2614L48.4488 26.1193Z" fill="white"/>
<path d="M48.4488 26.1193L48.1908 26.5484L47.6988 26.4411L47.6155 26.5779L47.9408 26.779L48.6612 26.9104L49.0457 26.2614L48.4488 26.1193Z" fill="white"/>
<path d="M48.4488 26.1193L48.1908 26.5484L47.6988 26.4411L47.6155 26.5779L47.9408 26.779L48.6612 26.9104L49.0457 26.2614L48.4488 26.1193Z" fill="white"/>
<path d="M55.4329 14.587L50.317 2.60684L49.7148 2.67121L55.0243 15.1904L55.4329 14.587Z" fill="white"/>
<path d="M55.4329 14.587L50.317 2.60684L49.7148 2.67121L55.0243 15.1904L55.4329 14.587Z" fill="white"/>
<path d="M73.6597 48.811V22.5818H81.2004V27.361H81.5068C82.679 24.4135 85.0232 21.973 89.2519 21.973C94.2951 21.973 97.8115 25.481 97.8115 31.8344V48.8137H90.2707V32.8536C90.2707 29.5494 88.7922 27.7713 85.8377 27.7713C83.4935 27.7713 81.2004 29.0425 81.2004 31.585V48.8164H73.6597V48.811Z" fill="white"/>
<path d="M124.461 48.811C121.353 48.811 119.315 47.1348 119.009 44.1847H118.753C117.837 47.5907 114.78 49.4198 110.753 49.4198C105.659 49.4198 102.296 46.5206 102.296 41.5913C102.296 36.1014 106.422 33.5079 114.116 33.5079H118.345V32.1858C118.345 29.0854 117.02 27.4575 113.554 27.4575C110.396 27.4575 108.562 28.8307 107.135 30.7617L103.008 27.1008C104.739 24.1534 108.562 21.9676 114.423 21.9676C121.608 21.9676 125.888 25.2717 125.888 31.88V43.3694H128.792V48.8083H124.461V48.811ZM118.348 40.7304V37.5791H114.323C111.318 37.5791 109.686 38.6465 109.686 40.6794V41.6959C109.686 43.5249 111.215 44.4931 113.608 44.4931C116.259 44.4931 118.348 43.1709 118.348 40.7304Z" fill="white"/>
<path d="M146.268 48.811C140.816 48.811 138.217 45.6598 138.217 41.2373V28.4284H131.085V22.5818H135.722C137.964 22.5818 138.83 21.8201 138.83 19.4815V13.3318H145.76V22.5818H156V28.4284H145.76V42.9671H156V48.8137H146.268V48.811Z" fill="white"/>
<path d="M163.032 42.9671H171.388V28.4284H163.032V22.5818H178.928V42.9671H186.673V48.8137H163.03V42.9671H163.032ZM170.624 15.6705V14.1954C170.624 12.1625 171.796 10.6365 175.159 10.6365C178.523 10.6365 179.695 12.1625 179.695 14.1954V15.6705C179.695 17.6524 178.523 19.2294 175.159 19.2294C171.796 19.2294 170.624 17.6524 170.624 15.6705Z" fill="white"/>
<path d="M198.343 48.811L188.918 22.5818H196.868L200.282 33.8164L202.779 42.5594H203.185L205.683 33.8164L209.097 22.5818H216.74L207.314 48.811H198.346H198.343Z" fill="white"/>
<path d="M219.388 35.7983C219.388 27.2081 224.28 21.9703 232.179 21.9703C240.077 21.9703 244.865 27.1035 244.865 35.2887V37.5255H226.877V37.9841C226.877 41.3392 229.068 43.6268 233.093 43.6268C236.2 43.6268 238.391 42.3047 240.023 40.3737L244.099 44.7962C242.061 47.2877 238.494 49.4225 232.837 49.4225C224.022 49.4225 219.385 44.1874 219.385 35.7983H219.388ZM226.88 32.9018V33.3095H237.477V32.9018C237.477 29.4958 235.491 27.361 232.23 27.361C228.969 27.361 226.88 29.5467 226.88 32.9018Z" fill="white"/>
<path d="M249.604 42.9671H257.656V17.0436H249.604V11.197H265.196V42.9671H273.248V48.8137H249.607V42.9671H249.604Z" fill="white"/>
<path d="M280.229 42.9671H288.585V28.4284H280.229V22.5818H296.125V42.9671H303.871V48.8137H280.227V42.9671H280.229ZM287.821 15.6705V14.1954C287.821 12.1625 288.993 10.6365 292.356 10.6365C295.72 10.6365 296.892 12.1625 296.892 14.1954V15.6705C296.892 17.6524 295.72 19.2294 292.356 19.2294C288.993 19.2294 287.821 17.6524 287.821 15.6705Z" fill="white"/>
<path d="M308.051 48.811V22.5818H315.591V27.361H315.898C317.07 24.4135 319.414 21.973 323.643 21.973C328.686 21.973 332.203 25.481 332.203 31.8344V48.8137H324.662V32.8536C324.662 29.5494 323.183 27.7713 320.229 27.7713C317.885 27.7713 315.591 29.0425 315.591 31.585V48.8164H308.051V48.811Z" fill="white"/>
<path d="M337.348 11.197H344.889V32.5478H345.246L348.763 28.4311L354.266 22.5845H362.927L352.739 32.9555L364 48.8137H355.032L347.389 37.2251L344.892 39.7166V48.8164H337.351V11.1997L337.348 11.197Z" fill="white"/>
</svg>
